<?xml version="1.0" standalone="no"?>
<!DOCTYPE svg PUBLIC "-//W3C//DTD SVG 20010904//EN"
 "http://www.w3.org/TR/2001/REC-SVG-20010904/DTD/svg10.dtd">
<svg version="1.0" xmlns="http://www.w3.org/2000/svg"
 width="880.000000pt" height="880.000000pt" viewBox="0 0 880.000000 880.000000"
 preserveAspectRatio="xMidYMid meet">
<metadata>
Created by potrace 1.14, written by Peter Selinger 2001-2017
</metadata>
<g transform="translate(0.000000,880.000000) scale(0.100000,-0.100000)"
fill="#000000" stroke="none">
<path d="M4138 8555 c-1 -1 -48 -6 -102 -10 -55 -4 -109 -8 -120 -10 -12 -2
-48 -6 -81 -10 -33 -3 -85 -10 -115 -15 -30 -5 -72 -12 -94 -16 -21 -3 -48 -8
-60 -10 -11 -3 -41 -9 -66 -14 -25 -5 -56 -12 -70 -15 -14 -4 -34 -8 -45 -9
-11 -2 -20 -4 -20 -6 0 -1 -9 -3 -20 -5 -11 -2 -35 -8 -53 -13 -18 -6 -35 -11
-37 -11 -3 -1 -6 -1 -7 -2 -2 0 -11 -2 -20 -5 -36 -8 -44 -11 -103 -28 -33
-10 -64 -19 -70 -21 -5 -1 -17 -5 -25 -8 -8 -3 -53 -19 -100 -35 -90 -31 -204
-74 -257 -98 -17 -8 -36 -14 -42 -14 -6 0 -11 -4 -11 -10 0 -5 -7 -10 -14 -10
-8 0 -35 -11 -60 -24 -26 -14 -46 -23 -46 -21 0 1 -37 -17 -82 -40 -46 -24
-108 -56 -138 -72 -30 -15 -57 -30 -60 -33 -3 -3 -16 -11 -29 -18 -13 -8 -39
-23 -59 -33 -37 -21 -150 -93 -167 -106 -5 -4 -30 -21 -55 -38 -79 -52 -184
-129 -200 -145 -8 -8 -33 -28 -55 -44 -22 -16 -47 -36 -55 -43 -8 -8 -26 -23
-40 -34 -92 -74 -359 -333 -450 -436 -33 -38 -121 -142 -140 -167 -8 -10 -26
-33 -40 -50 -43 -53 -156 -208 -185 -255 -6 -9 -31 -47 -56 -86 -72 -111 -130
-210 -162 -275 -6 -14 -14 -27 -17 -30 -30 -27 -259 -563 -284 -665 -2 -5 -9
-23 -15 -40 -7 -16 -15 -41 -17 -55 -3 -14 -9 -36 -14 -50 -9 -23 -56 -200
-66 -245 -2 -11 -11 -51 -19 -90 -8 -38 -17 -82 -19 -98 -3 -15 -7 -35 -10
-45 -5 -17 -15 -87 -22 -147 -1 -16 -5 -41 -8 -55 -5 -26 -11 -83 -23 -230
-15 -177 -7 -693 12 -800 2 -14 7 -50 10 -81 3 -31 8 -67 10 -80 3 -13 8 -44
11 -69 6 -45 10 -70 18 -113 3 -12 8 -38 11 -57 4 -19 13 -62 21 -95 8 -33 17
-71 20 -85 2 -14 9 -40 15 -58 6 -18 12 -39 13 -45 9 -43 70 -248 85 -282 5
-11 14 -33 19 -50 6 -16 13 -39 18 -50 4 -11 8 -24 10 -30 8 -31 95 -230 156
-354 101 -206 284 -520 309 -529 5 -2 9 -8 9 -12 0 -5 21 -39 47 -75 27 -37
53 -74 58 -83 6 -9 15 -21 21 -27 6 -5 26 -30 45 -55 18 -25 36 -47 39 -50 3
-3 25 -30 49 -60 69 -85 104 -122 266 -285 144 -145 202 -199 295 -275 23 -19
50 -42 60 -51 11 -8 31 -24 45 -35 15 -10 32 -24 39 -30 46 -43 363 -254 473
-316 l52 -29 58 18 c32 10 63 18 68 19 6 1 12 3 15 4 11 4 47 11 85 16 22 3
41 6 42 7 1 1 -10 27 -24 57 -13 30 -28 64 -33 75 -4 11 -15 37 -25 58 -30 69
-111 314 -115 349 0 4 -7 26 -15 48 -8 22 -14 43 -14 45 1 5 -4 34 -16 95 -3
14 -7 43 -10 65 -3 22 -8 56 -10 75 -4 29 -6 193 -3 250 1 8 7 51 13 95 7 44
11 83 8 88 -2 4 1 7 7 7 6 0 9 4 6 8 -3 5 4 41 14 82 10 40 18 76 18 79 -1 3
2 13 5 21 7 17 31 100 33 115 0 6 4 17 7 25 4 8 22 60 40 115 18 55 38 109 44
120 6 11 11 23 11 28 1 12 34 98 58 147 22 45 22 45 1 48 -31 6 -104 -18 -132
-42 -26 -22 -39 -59 -44 -121 -2 -23 -101 -105 -126 -105 -3 0 -5 20 -5 45 0
25 -4 45 -9 45 -27 0 -115 -129 -125 -182 -3 -13 -5 -23 -6 -23 -1 0 -4 -16
-7 -35 -2 -19 -6 -36 -7 -38 -2 -1 -14 9 -29 23 -39 40 -60 94 -61 157 -1 53
-2 57 -21 52 -56 -18 -150 -72 -176 -102 -17 -19 -32 -33 -34 -31 -7 8 -18 95
-17 133 1 22 9 50 18 64 9 13 12 22 8 19 -5 -2 -31 -7 -59 -11 -27 -3 -65 -10
-83 -15 -23 -7 -32 -7 -30 0 7 22 85 107 127 140 25 19 49 39 56 44 51 47 272
142 375 161 14 3 45 10 70 16 54 12 112 20 162 22 21 0 37 5 35 9 -1 5 -6 8
-10 8 -3 0 -21 5 -39 10 -118 34 -353 30 -442 -6 -20 -9 -20 1 -1 48 6 15 -1
14 -56 -10 -35 -14 -82 -38 -104 -53 -40 -26 -135 -141 -157 -192 -7 -15 -16
-24 -20 -22 -19 12 17 223 51 297 21 45 113 175 135 189 19 13 0 18 -93 27
-95 9 -121 18 -83 28 12 3 22 9 22 14 0 5 7 9 16 9 8 0 35 9 59 20 24 11 52
21 62 23 10 1 23 5 28 9 11 6 66 19 100 24 11 1 20 3 20 4 0 2 22 7 75 15 72
12 176 13 233 3 56 -10 179 -47 187 -57 9 -11 70 -42 70 -36 0 16 -94 146
-142 195 -65 67 -162 150 -177 150 -6 0 -11 4 -11 8 0 5 -16 17 -35 28 -19 10
-35 22 -35 26 0 3 -9 10 -20 13 -11 3 -20 9 -20 13 0 15 65 35 123 38 34 1 67
3 72 3 10 1 -23 33 -81 78 -33 25 -76 41 -133 49 -19 2 -37 6 -39 8 -9 10 107
38 168 41 75 4 182 -26 250 -72 22 -14 42 -24 44 -22 2 2 7 26 10 52 7 47 24
87 38 87 12 0 77 -95 108 -159 46 -93 93 -242 129 -409 20 -91 27 -104 38 -76
19 46 93 144 158 210 91 92 150 117 283 120 132 3 163 -9 105 -39 -76 -39
-110 -61 -130 -85 -13 -15 -23 -29 -23 -32 0 -3 69 -5 153 -5 214 0 269 -10
319 -57 30 -28 59 -81 65 -120 4 -27 3 -28 -24 -22 -15 4 -35 10 -43 14 -8 5
-18 8 -22 9 -5 1 -9 1 -10 2 -54 16 -146 14 -191 -4 -39 -17 -47 -31 -22 -40
25 -10 63 -80 68 -125 4 -42 3 -43 -19 -38 -13 4 -36 11 -51 18 -15 6 -32 12
-38 13 -5 1 -13 3 -17 5 -5 1 -11 3 -15 4 -5 2 -28 8 -53 15 -25 7 -53 15 -62
16 -10 2 -22 6 -27 9 -22 14 -144 14 -182 1 -34 -12 -108 -63 -97 -66 2 -1 53
-2 114 -4 124 -3 153 -7 269 -30 117 -24 200 -55 270 -100 43 -28 127 -113
156 -160 32 -52 64 -124 57 -131 -17 -16 -64 -12 -112 11 -59 28 -83 31 -121
13 -18 -8 -24 -16 -19 -27 33 -79 47 -208 31 -284 -12 -58 -57 -136 -102 -181
-55 -53 -68 -57 -59 -19 3 16 7 63 9 106 3 69 0 83 -26 135 -16 31 -36 66 -45
77 -16 20 -16 20 -32 -5 -29 -43 -50 -59 -70 -53 -12 3 -19 13 -19 26 1 42
-16 131 -35 191 -24 72 -66 136 -111 167 -17 13 -34 27 -35 31 -2 4 -8 8 -13
8 -4 0 -33 11 -63 25 -30 14 -63 26 -73 28 -10 1 -24 6 -30 10 -25 15 -13 -16
21 -57 44 -54 146 -204 146 -216 0 -4 4 -10 9 -12 13 -5 81 -145 97 -200 25
-82 9 -197 -47 -348 -12 -31 -25 -40 -27 -17 0 6 -3 26 -6 42 -3 17 -7 44 -9
62 -3 31 -45 103 -59 103 -4 0 -19 -20 -33 -44 -27 -47 -52 -72 -61 -63 -3 2
-7 20 -9 38 -2 19 -6 59 -10 89 -4 30 -8 71 -10 90 -6 68 -16 132 -24 153 -15
40 -60 75 -99 79 -36 3 -37 2 -38 -32 0 -19 -3 -48 -6 -65 -6 -30 -19 -102
-24 -140 -6 -42 -15 -101 -20 -127 -7 -36 -17 -117 -30 -232 -3 -33 -7 -67 -9
-77 -9 -46 -19 -259 -19 -399 1 -155 1 -155 38 -255 21 -55 51 -127 66 -160
15 -33 49 -105 75 -160 25 -55 76 -161 113 -235 l67 -135 65 -2 c60 -3 125 -9
125 -13 0 -1 11 -3 25 -5 14 -1 57 -10 95 -20 87 -21 87 -21 105 -28 8 -3 24
-7 35 -10 11 -3 50 -16 87 -30 65 -24 67 -24 87 -6 11 11 23 19 25 19 3 0 29
15 58 33 89 55 336 170 365 169 4 0 13 3 18 8 9 7 188 68 218 74 7 2 19 6 27
9 30 13 287 76 375 92 117 22 161 28 212 29 24 1 43 3 43 6 0 3 37 5 83 5 45
0 92 1 104 3 13 3 49 37 88 86 35 44 68 86 73 91 36 45 202 302 202 314 0 5 7
14 15 21 8 7 15 21 15 30 0 10 4 20 9 22 19 7 191 395 191 431 0 8 3 17 8 21
4 4 7 11 8 14 0 4 11 41 23 82 41 134 74 306 88 465 15 163 6 766 -12 794 -3
5 -1 12 5 16 6 4 7 11 4 17 -7 10 -10 40 -19 150 -7 95 -16 189 -20 217 -3 14
-7 54 -11 90 -3 36 -8 74 -10 86 -2 11 -6 43 -9 70 -3 28 -9 79 -15 115 -15
103 -20 142 -26 195 -3 28 -7 58 -10 67 -6 20 -9 40 -18 99 -4 25 -9 57 -11
70 -2 13 -6 40 -9 59 -3 19 -8 49 -12 65 -3 17 -7 44 -9 60 -1 17 -5 37 -8 45
-3 8 -8 33 -11 55 -3 22 -8 54 -12 70 -3 17 -7 39 -9 50 -7 48 -16 56 -59 54
-60 -4 -126 -40 -153 -84 -43 -69 -60 -128 -78 -265 -3 -25 -8 -61 -10 -80 -8
-60 -16 -124 -20 -160 -2 -19 -6 -62 -9 -95 -3 -33 -8 -93 -11 -133 -3 -41 -8
-78 -11 -83 -5 -9 -57 15 -79 36 -5 6 -19 28 -30 50 -11 22 -23 42 -27 43 -5
2 -8 8 -8 12 0 5 -9 25 -21 44 -17 29 -23 33 -34 23 -7 -8 -26 -24 -41 -38
-31 -25 -54 -68 -60 -109 -6 -41 -12 -75 -14 -80 -2 -3 -2 -8 -2 -11 0 -3 -7
-54 -17 -115 l-18 -109 -28 60 c-64 140 -116 319 -131 450 -5 46 -6 204 -1
213 3 4 8 23 11 42 11 66 52 175 109 285 17 33 31 62 32 65 0 3 10 21 23 41
12 20 22 41 22 48 0 6 4 11 9 11 5 0 14 12 20 28 11 27 91 157 111 179 5 7 10
14 10 17 0 5 67 105 138 204 l44 63 -45 -5 c-48 -6 -208 -54 -217 -65 -3 -3
-25 -16 -50 -28 -25 -13 -54 -29 -65 -35 -35 -22 -155 -148 -155 -164 0 -7 -4
-14 -9 -14 -5 0 -13 -10 -17 -22 -4 -13 -17 -45 -30 -73 -12 -27 -30 -72 -39
-100 -16 -48 -20 -60 -30 -106 -2 -11 -7 -29 -10 -39 -8 -25 -15 -81 -20 -164
-6 -93 -11 -106 -43 -107 -63 -3 -74 5 -127 96 l-38 66 -31 -37 c-58 -72 -126
-190 -141 -249 -5 -16 -10 -37 -12 -45 -14 -57 6 -274 36 -377 11 -37 6 -40
-29 -16 -161 113 -284 297 -306 458 -1 11 -3 20 -4 20 -5 0 -9 80 -8 160 0 83
4 160 8 160 2 0 5 16 14 58 4 24 13 54 31 115 3 7 4 13 4 15 0 1 7 16 15 32
l16 30 -43 18 c-43 19 -121 25 -170 13 -15 -3 -56 -22 -92 -42 -68 -37 -139
-50 -185 -32 -35 13 -40 26 -25 68 45 129 143 279 253 389 129 130 237 198
427 266 83 30 124 42 205 60 8 2 15 4 15 5 0 2 19 6 63 14 17 3 47 9 65 12 17
4 46 8 62 10 17 2 48 6 70 9 105 14 205 19 377 20 104 0 188 3 188 8 0 4 -19
25 -42 47 -47 44 -118 82 -187 100 -45 12 -187 15 -231 5 -14 -3 -42 -7 -63
-10 -21 -3 -47 -10 -58 -15 -10 -6 -19 -9 -19 -6 0 3 -33 -4 -72 -16 -40 -11
-77 -21 -83 -22 -5 -2 -17 -6 -25 -9 -17 -6 -150 -48 -165 -52 -5 -1 -17 -5
-25 -8 -8 -3 -40 -14 -70 -25 -30 -11 -63 -24 -73 -28 -17 -6 -18 -2 -13 57
12 148 32 187 146 281 28 23 31 30 20 43 -7 8 -18 15 -24 15 -7 0 -31 9 -53
20 -52 25 -106 37 -166 36 -26 -1 -47 3 -47 8 0 5 -6 4 -12 -1 -7 -6 -29 -13
-48 -16 -19 -3 -46 -9 -60 -12 -14 -3 -34 -8 -45 -10 -12 -3 -60 -18 -108 -35
-48 -16 -90 -30 -93 -30 -9 0 6 76 28 137 48 137 160 236 293 258 143 24 221
29 488 29 147 1 267 4 267 7 0 11 -50 73 -86 106 -20 18 -73 51 -118 72 -45
20 -103 51 -130 68 l-50 31 40 11 c105 28 318 32 414 8 8 -2 33 -7 55 -12 144
-28 318 -158 468 -350 26 -33 53 -67 61 -75 7 -8 18 -25 25 -37 6 -12 17 -28
23 -35 13 -14 27 -36 80 -127 34 -59 42 -56 53 19 4 24 9 49 12 53 3 5 7 21 8
36 2 14 10 55 20 91 9 36 19 76 22 90 2 14 13 54 23 90 11 36 21 74 23 85 2
11 19 67 37 125 19 58 34 107 34 110 5 30 71 188 116 276 59 115 118 203 178
266 39 41 45 39 81 -25 17 -30 29 -107 34 -219 1 -10 3 -18 5 -18 5 0 65 42
72 50 13 16 174 91 245 115 102 34 146 40 272 39 120 -1 233 -27 321 -74 29
-15 32 -19 17 -21 -11 -1 -24 0 -30 1 -20 5 -68 -3 -152 -27 -7 -1 -19 -5 -25
-6 -59 -17 -145 -75 -233 -159 -36 -34 -65 -65 -65 -68 0 -3 42 -6 93 -6 135
0 206 -12 275 -48 38 -20 40 -29 10 -45 -41 -21 -177 -110 -188 -121 -3 -3
-43 -34 -90 -70 -221 -166 -355 -304 -491 -505 -98 -146 -115 -177 -94 -169 8
4 15 10 15 14 0 4 8 10 18 14 9 3 46 22 82 42 104 57 260 113 355 128 22 3 51
8 65 11 79 19 336 9 500 -19 54 -10 135 -27 169 -36 20 -5 45 -11 56 -13 86
-16 301 -91 423 -148 56 -26 102 -50 102 -54 0 -17 -85 -31 -236 -40 -78 -5
-121 -11 -153 -23 -19 -7 -16 -12 32 -62 29 -30 64 -71 77 -90 13 -19 27 -37
30 -40 9 -7 93 -131 108 -160 7 -13 25 -54 39 -89 23 -58 32 -86 48 -154 2
-10 7 -26 9 -35 3 -9 8 -35 11 -57 3 -22 7 -51 10 -65 3 -14 7 -63 10 -110 2
-47 5 -85 6 -85 4 0 5 -72 2 -78 -5 -8 -39 44 -49 76 -4 9 -10 17 -15 17 -5 0
-9 5 -9 10 0 24 -140 220 -201 282 -55 56 -86 77 -175 120 -60 29 -111 53
-114 53 -3 1 -23 9 -44 18 -54 24 -86 31 -86 20 0 -5 3 -13 7 -17 4 -3 8 -12
9 -19 1 -7 9 -31 18 -54 8 -24 13 -43 11 -43 -2 0 -19 9 -37 19 -32 18 -86 33
-178 48 -61 10 -418 10 -505 0 -121 -14 -213 -30 -255 -42 -3 -1 -24 -5 -47
-10 -40 -7 -58 -21 -30 -22 36 -3 157 -14 188 -19 20 -2 54 -7 75 -10 186 -23
543 -118 684 -181 250 -111 423 -225 576 -377 81 -81 178 -196 171 -202 -3 -3
-47 4 -227 37 -30 6 -71 13 -92 16 l-36 5 26 -53 c23 -46 27 -67 27 -139 0
-98 -30 -240 -51 -240 -8 0 -14 6 -14 14 0 13 -62 81 -108 118 -46 37 -316
157 -327 146 -2 -2 0 -21 4 -43 7 -40 7 -85 -1 -141 -8 -50 -40 -144 -50 -144
-5 0 -7 -4 -4 -8 3 -5 -6 -20 -20 -35 -13 -14 -24 -29 -24 -32 0 -10 -73 -74
-80 -70 -3 2 -7 20 -8 41 -3 44 -38 176 -59 224 -35 81 -57 120 -66 120 -6 0
-8 3 -4 6 5 6 -16 34 -76 98 -27 29 -76 66 -88 66 -3 0 -5 -43 -5 -95 1 -90 0
-94 -19 -88 -11 3 -34 16 -51 29 -17 13 -35 24 -40 24 -5 0 -24 13 -42 30 -18
16 -36 30 -40 32 -27 12 -70 82 -77 124 -5 27 -9 51 -10 54 -1 3 -5 24 -9 47
-13 69 -57 120 -139 158 -85 40 -178 61 -219 49 -16 -5 -16 -7 0 -37 10 -18
35 -75 56 -127 21 -52 45 -108 52 -125 7 -16 23 -57 34 -90 12 -33 25 -69 30
-80 4 -11 18 -47 30 -80 12 -33 26 -69 30 -80 5 -11 23 -65 40 -120 17 -55 34
-107 36 -115 3 -8 5 -15 4 -15 -1 0 4 -13 10 -30 11 -28 67 -210 75 -245 1 -8
11 -44 20 -80 9 -36 18 -72 20 -80 2 -8 8 -33 13 -55 6 -22 13 -51 16 -65 3
-14 10 -50 16 -80 6 -30 13 -66 16 -80 2 -14 7 -36 9 -50 9 -41 16 -87 31
-200 25 -192 25 -566 -1 -699 -2 -10 -6 -42 -10 -72 -12 -94 -13 -101 -40
-229 -72 -352 -240 -860 -395 -1195 -68 -148 -70 -153 -53 -159 8 -3 26 -6 39
-6 14 0 57 -7 97 -15 40 -8 84 -16 98 -19 30 -5 177 -44 199 -53 8 -4 17 -7
20 -7 24 -6 184 -62 215 -76 22 -10 57 -25 78 -34 20 -9 52 -23 71 -31 32 -14
35 -13 87 20 30 19 59 39 66 45 7 5 15 10 18 10 3 0 33 20 68 45 34 25 73 53
86 62 36 26 213 165 232 183 9 8 39 33 65 55 61 50 366 355 417 415 20 25 48
59 62 75 242 287 468 645 636 1010 51 112 173 433 184 485 2 8 10 35 18 60 15
44 36 120 42 150 2 8 8 35 15 60 7 25 14 53 16 62 17 77 41 201 49 253 2 11 6
34 9 50 11 63 19 121 21 155 2 19 4 35 5 35 2 0 5 33 16 200 14 207 9 524 -11
710 -2 17 -6 62 -10 100 -4 39 -9 79 -11 90 -2 10 -6 37 -9 60 -3 22 -8 51
-11 65 -2 14 -6 39 -9 55 -2 17 -6 39 -9 50 -2 11 -12 56 -21 100 -21 98 -78
310 -103 385 -11 30 -20 60 -22 65 -1 6 -6 20 -11 33 -5 13 -9 27 -9 32 0 5
-6 24 -14 42 -12 28 -23 56 -31 78 -26 75 -125 296 -186 415 -93 182 -250 445
-271 453 -4 2 -8 8 -8 13 0 9 -36 65 -50 79 -3 3 -23 31 -44 63 -22 31 -42 57
-46 57 -3 0 -14 15 -25 32 -10 18 -28 42 -40 54 -11 11 -31 36 -45 54 -107
144 -405 442 -585 585 -21 17 -45 37 -54 45 -60 54 -373 273 -451 316 -19 10
-37 22 -40 25 -14 17 -365 198 -487 252 -182 79 -537 203 -633 221 -8 1 -33 8
-55 14 -22 6 -51 13 -65 16 -14 3 -36 8 -50 11 -22 5 -64 14 -150 31 -14 3
-36 7 -50 9 -14 2 -27 4 -30 5 -3 2 -8 2 -12 1 -4 0 -29 3 -55 8 -55 11 -158
24 -283 36 -54 6 -617 15 -622 10z"/>
<path d="M2600 2486 c0 -2 7 -7 16 -10 8 -3 12 -2 9 4 -6 10 -25 14 -25 6z"/>
</g>
</svg>
